<svg xmlns="http://www.w3.org/2000/svg" xmlns:xlink="http://www.w3.org/1999/xlink" version="1.1" x="0px" y="0px" viewBox="0 0 100 125" enable-background="new 0 0 100 100" xml:space="preserve"><g display="none"><rect x="-773" y="-21" display="inline" fill="#000000" width="1280" height="532"/></g><g><circle cx="33.986" cy="47.829" r="2.615"/><circle cx="43.071" cy="47.829" r="2.615"/><path d="M41.752,54.618L41.752,54.618c0,1.778-1.446,3.224-3.224,3.224s-3.224-1.446-3.224-3.224v0v-0.867h-1.734v0.867   c0,2.733,2.225,4.958,4.958,4.958s4.958-2.224,4.958-4.958v-0.867h-1.734V54.618z"/><path d="M92.745,58.415L81.658,47.328c-1.368-1.367-3.59-1.364-4.958,0l-2.605-2.605c5.904-6.49,5.741-16.564-0.527-22.832   c-6.458-6.456-16.961-6.454-23.417,0c-1.894,1.894-3.217,4.142-3.999,6.529c-2.447,1.267-4.655,2.753-6.414,4.074   c-0.723,0.544-1.695,0.544-2.418,0c-6.073-4.562-17.487-11.111-25.71-3.711C5.849,33.967,4.67,42.164,8.29,51.864   c1.246,3.339,2.945,6.696,5.194,10.263c0.556,0.88,1.146,1.708,1.719,2.509c1.435,2.01,2.79,3.909,3.286,6.245   c0.291,1.374,0.514,2.816,0.729,4.211c0.113,0.73,0.227,1.46,0.35,2.187c0.477,2.817,2.512,4.933,5.311,5.521   c2.762,0.584,5.548-0.565,7.099-2.918l5.477-8.312c0.344-0.522,0.865-0.578,1.073-0.578c0.209,0,0.73,0.056,1.075,0.579   l5.477,8.311c1.283,1.947,3.412,3.068,5.673,3.068c0.472,0,0.949-0.049,1.426-0.149c2.799-0.589,4.834-2.705,5.312-5.522   c0.122-0.726,0.235-1.456,0.349-2.186c0.216-1.395,0.438-2.837,0.729-4.21c0.496-2.337,1.852-4.236,3.286-6.246   c0.572-0.801,1.163-1.628,1.719-2.509c2.249-3.566,3.948-6.923,5.194-10.262c0.489-1.311,0.883-2.592,1.198-3.845   c0.79-0.443,1.555-0.944,2.278-1.527l2.648,2.648c-1.366,1.367-1.366,3.591,0,4.958l11.087,11.086   c0.684,0.684,1.581,1.025,2.479,1.025c0.898,0,1.797-0.342,2.48-1.025l1.81-1.81c0.66-0.661,1.024-1.541,1.024-2.479   C93.77,59.956,93.405,59.076,92.745,58.415z M65.585,50.676c-1.164,3.118-2.762,6.271-4.886,9.638   c-0.503,0.798-1.065,1.586-1.609,2.348c-1.574,2.205-3.202,4.485-3.845,7.515c-0.311,1.466-0.541,2.955-0.764,4.395   c-0.11,0.715-0.222,1.429-0.341,2.139c-0.286,1.686-1.563,2.534-2.662,2.766c-1.098,0.232-2.618-0.03-3.563-1.464l-5.477-8.311   c-0.869-1.319-2.331-2.107-3.91-2.107c-0.001,0-0.001,0-0.001,0c-1.58,0-3.041,0.788-3.909,2.106l-5.477,8.311   c-0.944,1.435-2.464,1.696-3.563,1.464s-2.376-1.08-2.661-2.765c-0.12-0.711-0.231-1.425-0.342-2.14   c-0.223-1.44-0.453-2.929-0.764-4.396c-0.643-3.029-2.271-5.309-3.845-7.514c-0.544-0.762-1.106-1.55-1.609-2.348   c-2.124-3.368-3.722-6.52-4.886-9.638c-1.795-4.809-3.868-13.72,2.409-19.37c6.416-5.775,16.16-0.034,21.397,3.902   c1.914,1.438,4.586,1.438,6.5,0c1.034-0.777,2.245-1.624,3.57-2.439c-0.224,4.512,1.364,9.098,4.802,12.537   c3.229,3.228,7.469,4.841,11.708,4.841c1.38,0,2.755-0.189,4.1-0.531C65.835,49.987,65.709,50.343,65.585,50.676z M52.553,42.905   c-5.132-5.131-5.132-13.481,0-18.612c2.565-2.565,5.936-3.848,9.307-3.848c3.37,0,6.74,1.283,9.306,3.848   c4.944,4.944,5.11,12.867,0.528,18.029l-0.111-0.111l-1.811,1.811l0.044,0.044C64.661,47.986,57.258,47.609,52.553,42.905z    M90.78,61.408l-1.81,1.811c-0.277,0.278-0.748,0.279-1.027,0L76.856,52.132c-0.183-0.183-0.21-0.4-0.21-0.514   s0.027-0.331,0.211-0.514l1.809-1.81c0.14-0.14,0.327-0.209,0.515-0.209c0.187,0,0.374,0.069,0.513,0.208L90.78,60.381   c0.183,0.183,0.21,0.4,0.21,0.514S90.962,61.225,90.78,61.408z"/><path d="M68.092,28.122c-0.365-0.768-1.281-1.092-2.051-0.727L53.54,33.349c-0.767,0.365-1.093,1.283-0.727,2.051   c0.264,0.553,0.815,0.877,1.39,0.877c0.222,0,0.447-0.048,0.661-0.15l12.501-5.954C68.132,29.807,68.458,28.889,68.092,28.122z"/><path d="M71.797,32.322c-0.365-0.767-1.283-1.093-2.051-0.727l-9.028,4.301c-0.767,0.365-1.093,1.284-0.727,2.051   c0.264,0.553,0.815,0.877,1.39,0.877c0.222,0,0.447-0.048,0.661-0.15l9.028-4.301C71.837,34.008,72.162,33.089,71.797,32.322z"/></g><text x="0" y="115" fill="#000000" font-size="5px" font-weight="bold" font-family="'Helvetica Neue', Helvetica, Arial-Unicode, Arial, Sans-serif">Created by Oksana Latysheva</text><text x="0" y="120" fill="#000000" font-size="5px" font-weight="bold" font-family="'Helvetica Neue', Helvetica, Arial-Unicode, Arial, Sans-serif">from the Noun Project</text></svg>